<?xml version="1.0" encoding="UTF-8"?>
<!DOCTYPE svg PUBLIC "-//W3C//DTD SVG 1.1//EN" "http://www.w3.org/Graphics/SVG/1.1/DTD/svg11.dtd">
<!-- Creator: CorelDRAW X7 -->
<svg xmlns="http://www.w3.org/2000/svg" xml:space="preserve" width="48px" height="48px" version="1.1" style="shape-rendering:geometricPrecision; text-rendering:geometricPrecision; image-rendering:optimizeQuality; fill-rule:evenodd; clip-rule:evenodd"
viewBox="0 0 48 48"
 xmlns:xlink="http://www.w3.org/1999/xlink">
 <defs>
  <style type="text/css">
   <![CDATA[
    .str1 {stroke:#D44959;stroke-width:0.755917}
    .str3 {stroke:#FBC763;stroke-width:0.755917}
    .str0 {stroke:#FDD78C;stroke-width:0.755917}
    .str2 {stroke:#FED790;stroke-width:0.755917}
    .fil3 {fill:#FBC763}
    .fil0 {fill:#FDD78C}
    .fil2 {fill:#FED790}
    .fil1 {fill:#D44959}
   ]]>
  </style>
 </defs>
 <g id="Layer_x0020_1">
  <metadata id="CorelCorpID_0Corel-Layer"/>
  <g id="_940021678416">
   <circle class="fil0 str0" cx="24" cy="24" r="24"/>
   <path class="fil1 str1" d="M25 8c9,0 16,7 16,17 0,9 -7,16 -16,16 -9,0 -16,-7 -16,-16 0,-10 7,-17 16,-17z"/>
   <g>
    <path class="fil2 str2" d="M21 19c-2,-1 -6,-1 -7,2 -3,8 5,18 8,12 1,-1 2,-2 2,-4 0,-3 4,-2 5,1 0,1 7,5 7,-5 0,-5 -1,-9 -7,-9 -3,-1 -5,4 -5,1 -1,-3 -3,-4 -3,1 0,0 0,1 0,1z"/>
    <path class="fil3 str3" d="M17 25c0,-3 5,-2 2,3 -1,2 -2,-3 -2,-3z"/>
    <path class="fil3 str3" d="M31 24c-4,-1 -3,-2 -1,-4 0,0 4,2 2,3 -1,1 -1,1 -1,1z"/>
   </g>
  </g>
 </g>
</svg>
