<?xml version="1.0" encoding="UTF-8"?>
<!DOCTYPE svg PUBLIC "-//W3C//DTD SVG 1.1//EN" "http://www.w3.org/Graphics/SVG/1.1/DTD/svg11.dtd">
<!-- Creator: CorelDRAW X7 -->
<svg xmlns="http://www.w3.org/2000/svg" xml:space="preserve" width="48px" height="48px" version="1.1" style="shape-rendering:geometricPrecision; text-rendering:geometricPrecision; image-rendering:optimizeQuality; fill-rule:evenodd; clip-rule:evenodd"
viewBox="0 0 48 48"
 xmlns:xlink="http://www.w3.org/1999/xlink">
 <defs>
  <style type="text/css">
   <![CDATA[
    .str1 {stroke:#895182;stroke-width:0.755917}
    .str0 {stroke:#FDD78C;stroke-width:0.755917}
    .str2 {stroke:#FDD78C;stroke-width:0.755917}
    .fil0 {fill:#FDD78C}
    .fil1 {fill:#895182}
   ]]>
  </style>
 </defs>
 <g id="Layer_x0020_1">
  <metadata id="CorelCorpID_0Corel-Layer"/>
  <g id="_940019809120">
   <circle class="fil0 str0" cx="24" cy="23" r="24"/>
   <path class="fil1 str1" d="M25 7c8,0 16,7 16,16 0,10 -8,17 -16,17 -9,0 -17,-7 -17,-17 0,-9 8,-16 17,-16z"/>
   <path class="fil0 str2" d="M27 29c1,-1 -1,-3 -1,-5 0,0 -1,-5 0,-5 1,-1 7,2 8,-1 1,-1 -6,-1 -7,-3 -1,-1 -2,-1 -3,-1 -3,0 -2,-1 -2,3 0,2 0,1 1,3 0,2 1,4 0,6 0,0 0,0 0,0 0,0 -1,0 -2,0 -3,0 -6,2 -6,3 0,2 3,4 6,4 4,0 6,-2 6,-4z"/>
  </g>
 </g>
</svg>
