<?xml version="1.0" encoding="UTF-8"?>
<!DOCTYPE svg PUBLIC "-//W3C//DTD SVG 1.1//EN" "http://www.w3.org/Graphics/SVG/1.1/DTD/svg11.dtd">
<!-- Creator: CorelDRAW X7 -->
<svg xmlns="http://www.w3.org/2000/svg" xml:space="preserve" width="48px" height="48px" version="1.1" style="shape-rendering:geometricPrecision; text-rendering:geometricPrecision; image-rendering:optimizeQuality; fill-rule:evenodd; clip-rule:evenodd"
viewBox="0 0 48 48"
 xmlns:xlink="http://www.w3.org/1999/xlink">
 <defs>
  <style type="text/css">
   <![CDATA[
    .str1 {stroke:#5F3959;stroke-width:0.755917}
    .str3 {stroke:#FBC763;stroke-width:0.755917}
    .str0 {stroke:#FDD78C;stroke-width:0.755917}
    .str2 {stroke:#FED790;stroke-width:0.755917}
    .fil3 {fill:#FBC763}
    .fil0 {fill:#FDD78C}
    .fil2 {fill:#FED790}
    .fil1 {fill:#5F3959}
   ]]>
  </style>
 </defs>
 <g id="Layer_x0020_1">
  <metadata id="CorelCorpID_0Corel-Layer"/>
  <g id="_940019813056">
   <circle class="fil0 str0" cx="23" cy="24" r="24"/>
   <path class="fil1 str1" d="M23 7c9,0 17,8 17,17 0,9 -8,16 -17,16 -9,0 -16,-7 -16,-16 0,-9 7,-17 16,-17z"/>
   <g>
    <path class="fil2 str2" d="M20 18c-2,-1 -7,0 -8,3 -2,7 6,17 9,11 1,-1 2,-2 1,-4 0,-3 4,-2 5,2 1,0 8,4 8,-6 0,-4 -2,-9 -7,-9 -3,0 -5,4 -6,1 0,-3 -3,-4 -2,1 0,1 -1,1 0,1z"/>
    <path class="fil3 str3" d="M16 24c0,-3 5,-2 2,3 -1,3 -2,-3 -2,-3z"/>
    <path class="fil3 str3" d="M30 24c-4,-2 -4,-2 -1,-5 0,0 4,2 1,4 0,0 0,1 0,1z"/>
   </g>
  </g>
 </g>
</svg>
